<svg id="Layer_1" data-name="Layer 1" xmlns="http://www.w3.org/2000/svg" viewBox="0 0 359.12 261.24"><defs><style>.cls-1{fill:none;}</style></defs><title>nod</title><path d="M233.72,157.1h0A68.42,68.42,0,0,1,282.26,137h76.86v-9.66H287.05q-.14-2.15-.4-4.27h0v0A78.48,78.48,0,0,0,262.56,75.4l-.1-.1-1.1-1-.58-.52h0c-1-.88-2-1.7-2.9-2.45l-.3-.23c-.88-.7-1.77-1.37-2.67-2A77.25,77.25,0,0,0,245,63l-.43-.24v0c-1.58-.8-3.17-1.54-4.75-2.21a77.61,77.61,0,0,0-12.75-4.22l-.49-.12q-1.22-.28-2.45-.52L223,55.5l-1.18-.2q-2.6-.43-5.11-.68l-.41,0a79,79,0,0,0-27.62,2.32,91.91,91.91,0,0,0-9.92,3.47,78.33,78.33,0,0,0-26.45-5.87l-.38,0h-.28l-.51,0h-.54l-1.11,0h-.66C124.17,22.25,107.48,2.1,105.91,3.24c-2.69,1.94,39.93,65.49,95.18,141.94,14.9,20.62,29.2,40.06,42.18,57.43a78,78,0,0,0,8.11-4.52h0l.81-.54.6-.39h0a78.58,78.58,0,0,0,11.51-9.5,25.31,25.31,0,0,1,18-7.43h76.86v-9.66H282.26a34.92,34.92,0,0,0-24.77,10.26h0a68.94,68.94,0,0,1-10.23,8.4l-2.74-3.91a64,64,0,0,0,9.61-7.86h0a39.68,39.68,0,0,1,28.15-11.66h76.86v-9.66H282.26v0a49.31,49.31,0,0,0-35,14.49h0a54.49,54.49,0,0,1-8.34,6.8l-2.75-3.88a49.48,49.48,0,0,0,7.72-6.27h0a54,54,0,0,1,38.33-15.87h76.86v-9.66H282.26a63.67,63.67,0,0,0-45.16,18.71h0a39.8,39.8,0,0,1-6.49,5.24l-2.77-3.89a35.17,35.17,0,0,0,5.88-4.73m.59-24.06c0,.16,0,.31,0,.47s0,.41,0,.62l0,.27v.14a25.17,25.17,0,0,1-.89,4.76l.07-.05a25.28,25.28,0,0,1-5,9.56h0c-.51.48-1,1-1.52,1.45a25.6,25.6,0,0,1-2.42,2.13q.71-2.78,1.44-6.37a78.8,78.8,0,0,0-1.57-33.69l.88.7h0a25.29,25.29,0,0,1,6.74,8.78l.12.26.13.3c.15.36.3.71.44,1.09s.37,1,.53,1.54l.09.29q.22.75.4,1.54c0,.15.06.3.1.45.1.47.19,1,.26,1.44,0,.08,0,.16,0,.24.08.58.14,1.16.18,1.75,0,.21,0,.43,0,.65s0,.23,0,.34q0,.4,0,.81v0c0,.15,0,.3,0,.45m14.36,1.87c-1.73.82-3.41,1.72-5.07,2.66a35.22,35.22,0,0,0,.31-6.8s0,0,0,0,0-.19,0-.29c0-.26,0-.52,0-.79,0-.07,0-.15,0-.22v0c0-.12,0-.24,0-.36V129a34.51,34.51,0,0,0-6.51-17.07l-.08-.1q-.46-.63-.94-1.22l-.55-.67-.25-.29a35.54,35.54,0,0,0-4.59-4.46l-.53-.37a34.88,34.88,0,0,0-10.87-5.69l-.15-.28q-1.29-2.69-2.83-5.36a40,40,0,0,1,6.28,1.74l.08,0c.53.2,1.05.41,1.57.63l.48.21,1.22.56.52.25,1.24.65.4.22.41.24v0l.22.13.38.2q.88.53,1.73,1.09c.61.42,1.27.89,2,1.42a40,40,0,0,1,11.06,13h0c.23.42.44.86.65,1.29.12.25.24.5.36.76s.23.51.34.77c.24.55.47,1.12.69,1.7h0c.15.38.29.77.42,1.15s.18.53.26.79.17.52.25.78.08.29.12.44a40,40,0,0,1,1.46,8.76h0a39.87,39.87,0,0,1,0,4.61m9.69-3.84A49.3,49.3,0,0,0,244.85,98.5a50.06,50.06,0,0,0-5-4.61l-1.41-1c-.49-.36-1-.71-1.46-1.05l-.29-.19-.92-.62-.79-.49-.16-.1-.15-.1c-.54-.33-1.07-.63-1.6-.93l-.54-.3-.24-.14-.83-.47v0l-.51-.25-.61-.3q-.82-.39-1.63-.75l-.37-.16a50.25,50.25,0,0,0-9.36-3l-1.69-.27-.83-.15v0a34.48,34.48,0,0,0-4.8-.48l-2.31-.12-.41-.5q-.59-.71-1.21-1.42-1.2-1.38-2.48-2.71a55.15,55.15,0,0,1,6.13-.08h0a54.22,54.22,0,0,1,48.39,35.33h0a53.85,53.85,0,0,1,3.28,16c-1.59.4-3.15.85-4.7,1.35m-67.2-64.85A69.24,69.24,0,0,1,212,63.95v0a68.94,68.94,0,0,1,13.52,2l.81.21a68.12,68.12,0,0,1,15.21,6l1.79,1,.35.19A68.94,68.94,0,0,1,271.37,104l.05.11c.21.46.41.92.61,1.38.34.8.67,1.61,1,2.45l.18.46c.13.33.25.67.37,1l.25.7c.13.37.25.74.37,1.12l.19.57q.55,1.74,1,3.56l.07.3q.19.76.37,1.53l.09.42c.1.47.2.94.3,1.41l.11.54c.08.42.16.84.23,1.26,0,.24.08.47.12.71s.1.63.14.94q.37,2.49.55,5c-1.6.1-3.18.26-4.75.46q-.15-2.13-.44-4.22h0c0-.14,0-.27-.06-.4-.07-.47-.14-.94-.22-1.4q-.2-1.22-.45-2.43l0-.12c0-.12,0-.24-.07-.35l0-.09a63.67,63.67,0,0,0-7.82-19.58,61.41,61.41,0,0,0-10.86-13.41l-.41-.38c-.47-.43-.93-.86-1.41-1.27-.68-.59-1.35-1.16-2-1.67l-.32-.24a64.85,64.85,0,0,0-10-6.49l-.46-.27v0a60.3,60.3,0,0,0-12-4.65l-.5-.13-1.44-.37c-.84-.21-1.67-.4-2.5-.56l-.47-.09q-1.27-.25-2.51-.43l-.55-.08c-1-.14-2-.27-3-.36H215c-1-.09-1.93-.16-2.88-.2l-.33,0h0A64.64,64.64,0,0,0,195.73,70q-2.54-1.9-5.26-3.61l.69-.21m-15.94,3.17a68.73,68.73,0,0,1,23.69,16.42c.52.55,1,1.11,1.53,1.67l.05.06c1.38,1.58,2.66,3.21,3.85,4.86,1.54,2.23,2.8,4.17,3.75,5.8.24.42.47.84.71,1.26s.29.55.41.8l1.28,2.44c.91,1.89,1.73,3.77,2.44,5.65a69.09,69.09,0,0,1,3.48,36l-.25,1.18-4-5.55A63.2,63.2,0,0,0,211,118.41q-.28-1.29-.63-2.61h0l-.27-.83a62,62,0,0,0-3.8-10l-.56-1.22a63.62,63.62,0,0,0-3.6-6.16l-.07-.1q-.59-.88-1.23-1.78a62.18,62.18,0,0,0-16.45-16.05,63.9,63.9,0,0,0-23.84-9.74l-4.07-5.38a69.06,69.06,0,0,1,18.74,4.84m20.55,48c-.35-1.06-.72-2.14-1.18-3.26l-.21-.51c-.14-.32-.28-.65-.42-1q-.84-1.9-1.87-3.79l-.11-.2q-.4-.72-.83-1.43l-.07-.11a49.34,49.34,0,0,0-13.9-15L170.32,83a50.15,50.15,0,0,1,7.59,4,53.88,53.88,0,0,1,15.29,14.62l.36.52.63.94a54.94,54.94,0,0,1,3.29,5.82,49.12,49.12,0,0,1,2.68,6.71l.7,2.13c.26.94.51,1.88.71,2.8a52.66,52.66,0,0,1,1.06,6.29l-6.87-9.42"/><path d="M124.84,58.27c-2.37.75-4.68,1.63-6.94,2.59l0,0-.9.42-1.65.76-1,.46-.33.16h0A78.47,78.47,0,0,0,93.59,77.36a25.31,25.31,0,0,1-18,7.43H-1.23v9.66H75.63a34.92,34.92,0,0,0,24.77-10.26h0a68.78,68.78,0,0,1,19.3-13.57l2.83,3.95a64,64,0,0,0-18.77,13h0A39.69,39.69,0,0,1,75.63,99.22H-1.23v9.66H75.63v0a49.3,49.3,0,0,0,35-14.48h0a54.27,54.27,0,0,1,17.7-11.81l2.87,4A49.45,49.45,0,0,0,114,97.75h0a54,54,0,0,1-38.33,15.87H-1.23v9.66H75.63a63.67,63.67,0,0,0,45.16-18.71h0a39.76,39.76,0,0,1,16.3-9.85l3,4.11A35,35,0,0,0,124.17,108h0A68.42,68.42,0,0,1,75.63,128H-1.23v9.66H70.83q.14,2.15.4,4.27h0c0,.1,0,.19,0,.29q.08.67.18,1.33l.1.66q.1.65.21,1.3c0,.21.07.42.11.63.08.45.16.89.25,1.34l.11.57q.14.7.3,1.39l.11.51q.16.71.34,1.41l.12.49q.18.69.36,1.37l.15.54c.12.42.24.83.36,1.24l.2.68.32,1,.3.92.23.68c.15.43.3.85.45,1.27l.09.23a78.24,78.24,0,0,0,25.6,34.76l.07.05.06,0,.38.28c1.57,1.2,3.1,2.27,4.53,3.2l.8.48c1.35.85,2.72,1.64,4.09,2.39l1.53.82.78.41q3,1.54,6.2,2.83l.64.29v0A77.62,77.62,0,0,0,132,209l.27.06q1.18.25,2.37.47l.66.12q1.17.21,2.35.38l1.07.14,1.42.17,1.14.13,2.16.18,1,.06.93.05h0a78.94,78.94,0,0,0,21.79-2.05A80,80,0,0,0,178.28,205l.84-.35A77.92,77.92,0,0,0,199.2,210c1.72.22,3.46.37,5.2.48h.09l1.64.08.59,0,1.27,0h1A78.61,78.61,0,0,0,223,209.34c25.47,32.65,42.69,53,44.29,51.85,2.76-2-41.87-67.28-99.68-145.73C152.56,95,138.07,75.65,124.84,58.27m66.44,109.65a40.13,40.13,0,0,1-18.56-19.51l-.25-.57-.22-.53a36.64,36.64,0,0,1-1.5-4.52c-.31-1.11-.54-2.19-.74-3.26,7.31,9.83,14.42,19.33,21.26,28.38m-31.57-34.79c0,1.05.06,2.14.15,3.24,0,.19,0,.38.05.58.14,1.46.33,3,.62,4.48l.15.93a49.5,49.5,0,0,0,1.89,6.66c.11.32.24.64.36,1l.19.49a49.17,49.17,0,0,0,20,24,46.41,46.41,0,0,0,9.58,4.56,47.86,47.86,0,0,0,8.59,2.16l4,5.22-.64-.05c-.72-.06-1.44-.13-2.15-.21l-.59-.08q-1.14-.15-2.27-.35l-.51-.09c-.75-.14-1.5-.3-2.24-.46l-.56-.12c-.51-.12-1-.27-1.53-.4a49.53,49.53,0,0,1-5.23-1.73A54.23,54.23,0,0,1,167.9,167.6c-.53-.62-1-1.25-1.54-1.89a52.59,52.59,0,0,1-4.26-6.47L160.82,157a51.34,51.34,0,0,1-4-10.42,54.22,54.22,0,0,1-.66-25.77l1.49,2,2.45,3.33a49.69,49.69,0,0,0-.4,6.28h0s0,.24,0,.69m-36.12-2c0-.19,0-.37,0-.56s0-.28,0-.42a25.6,25.6,0,0,1,.81-4.32l0,0a25.27,25.27,0,0,1,5-9.64q.78-.74,1.54-1.49a25.46,25.46,0,0,1,2.37-2.09l0,.08a78.41,78.41,0,0,0,.21,40q-.44-.34-.89-.71h0q-.49-.41-1-.84l0,0a25.35,25.35,0,0,1-8.06-19.94m-14.38-1q2.58-1.23,5.06-2.63a35.1,35.1,0,0,0-.36,5h0c0,1,0,1.91.11,2.86a34.63,34.63,0,0,0,11,22.71l.21.2.17.16.4.35c.23.2.45.41.68.6h0a34.84,34.84,0,0,0,11.92,6.55q.39.82.79,1.63h0l.19.33q.94,1.85,2,3.68l-.24,0c-1.27-.25-2.51-.57-3.73-.94-1-.29-1.95-.63-3-1l0,0q-1.17-.46-2.38-1l-1.71-.91a36.76,36.76,0,0,1-4.56-2.78l-.34-.24c-.39-.29-.78-.59-1.18-.9l-.52-.42c-.39-.32-.79-.66-1.18-1l-.48-.42-.25-.23q-.58-.54-1.14-1.11l-.18-.18q-.59-.6-1.15-1.23l-.12-.14q-.61-.68-1.18-1.39l0,0a39.93,39.93,0,0,1-3.21-4.6l-.11-.19q-.4-.68-.78-1.38l-.28-.54c-.19-.37-.38-.74-.56-1.11s-.43-.93-.64-1.4l-.18-.4-.19-.46a39.55,39.55,0,0,1-1.7-5.14l-.06-.25c-.11-.46-.22-.93-.32-1.39,0-.18-.08-.35-.11-.53-.09-.46-.17-.93-.24-1.4s-.11-.73-.15-1.09-.07-.53-.1-.79-.06-.54-.08-.81,0-.59-.07-.89c0-.13,0-.26,0-.39h0a39.82,39.82,0,0,1,0-4.66M99.52,134q.06,2.19.31,4.34h0c0,.09,0,.18,0,.28s0,.44.08.66.05.35.08.52,0,.29.07.43a49.3,49.3,0,0,0,14.22,27.63,50.12,50.12,0,0,0,5.17,4.45l.74.49.11.07q.81.58,1.65,1.12l.21.14q.87.56,1.77,1.09h0q1.87,1.09,3.84,2l.26.13h0q1.37.64,2.79,1.19l.19.08,1.2.45q.81.29,1.6.55l.47.14c1.63.51,3.16.9,4.55,1.19l.84.14c.56.11,1.11.21,1.68.3v0a34.21,34.21,0,0,0,4.79.48l2.31.12c.45.55.92,1.11,1.41,1.67l.19.22.44.49,1,1.16.11.12,1,1-.36,0a54,54,0,0,1-5.82,0v0A54,54,0,0,1,121.05,179l-1.16-.74-.08,0a54.41,54.41,0,0,1-21.65-26.73L98,151a53.69,53.69,0,0,1-2.1-7.33l0-.09c-.16-.75-.29-1.51-.42-2.28l-.12-.76q-.39-2.6-.53-5.27c1.58-.4,3.15-.84,4.7-1.33m65.4,65.31a69.26,69.26,0,0,1-19.09,1.8h0a69,69,0,0,1-13.07-1.86L132,199l-1-.27c-.73-.2-1.45-.4-2.18-.63s-1.66-.53-2.49-.82l-.55-.19c-.72-.26-1.44-.54-2.17-.82l-.78-.32-2.32-1c-.38-.16-.8-.35-1.24-.55q-1.28-.61-2.52-1.28c-.79-.43-1.64-.91-2.54-1.43a69,69,0,0,1-25.87-27.06c-.22-.42-.44-.84-.65-1.26l-.3-.61q-.3-.61-.59-1.24l-.25-.53q-.38-.84-.74-1.7l-.27-.67q-.24-.59-.48-1.19l-.27-.71q-.25-.66-.48-1.32l-.2-.57q-.3-.88-.59-1.79c-.09-.28-.17-.57-.26-.85s-.2-.68-.3-1-.2-.71-.29-1.07l-.16-.64q-.54-2.11-.94-4.27c-.05-.28-.1-.56-.15-.83a68.4,68.4,0,0,1-.83-6.8q2.4-.15,4.76-.44.15,2.13.44,4.22h0c.05.4.12.78.18,1.18v.06a61.45,61.45,0,0,0,1.26,6l.06.22c.05.2.1.41.16.61l.09.3.22.75c.09.32.19.63.29.94l.15.48c.25.79.51,1.57.79,2.34,0,.14.1.27.15.4l0,.1a62.21,62.21,0,0,0,11.59,19.6l.73.83.74.82c.63.68,1.26,1.32,1.88,1.94l.09.09c1,1,2,1.94,3,2.77l.6.48a62.42,62.42,0,0,0,8.3,5.94l.09.06c.33.2.65.4,1,.59l.55.35v0l.83.43,1,.53.58.31.43.21c.55.27,1.1.54,1.65.8l1.08.48c.48.21,1,.43,1.45.63q1.21.5,2.41.94l1.06.36,1.63.54,1.18.36,1.63.45,1.09.29q1.28.32,2.53.57l.85.16q1,.2,2.07.36l.8.12q1.43.2,2.8.34l.36,0a63.5,63.5,0,0,0,10,.17A69.57,69.57,0,0,0,162.1,195q2.55,1.92,5.29,3.63l-2.46.7m44,1.67h-.7A68.84,68.84,0,0,1,159,179.31c-.54-.57-1.08-1.15-1.6-1.74l-.21-.25c-.92-1.07-1.79-2.16-2.63-3.26a65.87,65.87,0,0,1-5-7.67l-1.47-2.62a68.81,68.81,0,0,1-5.17-49.62c.79-2.52,1.52-4.69,2.2-6.49a.52.52,0,0,0,0-.05c.41-.06.83-.1,1.24-.14L149,111q-.69,2-1.45,4.4a64.08,64.08,0,0,0,0,33.65,60.41,60.41,0,0,0,4.58,12h0l.24.43c.68,1.32,1.42,2.62,2.2,3.92l.44.71q1.48,2.37,3.2,4.66L159,172c.59.74,1.23,1.51,1.92,2.3l.12.14c.44.5.9,1,1.38,1.51a61.42,61.42,0,0,0,13.22,10.82,63.85,63.85,0,0,0,25.4,8.95,63.15,63.15,0,0,0,7.92.5h0c1.28,0,2.54,0,3.8-.13l3.47,4.49a69,69,0,0,1-7.27.4"/><rect class="cls-1" x="-242" y="-37.28" width="841.89" height="595.28"/></svg>